<svg width="4597" height="2654" viewBox="0 0 4597 2654" fill="none" xmlns="http://www.w3.org/2000/svg">
<g clip-path="url(#clip0_8_1964)">
<rect width="1877.9" height="3429.21" transform="matrix(0.866044 -0.499967 0.866044 0.499967 0 938.889)" fill="#1A1A1A"/>
<path d="M707.558 1340.36L549.505 1254.62L620.521 1213.62L824.041 1101.63L927.534 1161.37L939.225 1154.63L1022.37 1169.12L1147.51 1096.88L1103.34 1067.38L1238.44 989.386L1002.88 846.895L903.284 779.4L971.269 731.153L963.907 683.406L1203.37 371.676L1295.17 363.177L1303.4 273.433L1699.18 283.432L1692.25 362.427L1780.15 365.677L1988.44 485.919L1893.17 540.915L1890.57 600.411L2113.15 728.903L2340.05 597.912L2644.9 773.9L2741.03 760.401L3096.97 947.389L3224.72 1073.63L3330.37 1257.62L3037.65 1446.61L2865.31 1588.1L2918.14 1607.1L3169.72 1450.36L3300.93 1502.1L3232.94 1616.85L3371.94 1602.6L3377.14 1533.6L3565.5 1497.35L3857.79 2018.57L3671.59 2053.07L3710.57 2120.56L3602.74 2137.31L3536.06 2009.32L3722.69 1975.07L3588.45 1732.59L2992.62 1841.08L2951.48 1834.33L2739.3 1753.84L2847.55 1660.34L2807.28 1637.09L2600.3 1539.1L2619.78 1519.35L2415.83 1406.61L2556.56 1325.36L2486.41 1284.87L2126.14 1134.88V1169.87L2267.74 1240.12L2159.48 1302.62L2024.38 1228.62L2095.83 1152.38L2076.77 1141.38L1934.31 1218.62L1651.98 1374.11L1528.57 1284.37L1462.32 1322.61L1375.28 1372.86L1391.3 1468.6L1439.8 1496.6L1508.22 1457.11L1606.08 1513.6L1537.66 1553.1L1661.07 1624.34L1741.18 1670.59C1708.27 1689.26 1632.58 1732.49 1593.09 1756.09C1553.6 1779.68 1506.48 1766.09 1487.86 1756.34L1460.15 1740.34L1293 1637.34L813.216 1345.36L791.998 1357.61L762.552 1340.61L735.272 1356.36L707.558 1340.36Z" fill="#EDEDBB" stroke="black"/>
<path d="M2919.87 1617.6L2859.68 1663.84L2852.75 1673.84L3008.2 1736.59L3436.03 1663.09L3451.62 1691.59L3560.31 1674.34L3729.19 1978.82L3543.42 2012.07L3610.11 2136.56L3703.64 2120.56L3664.67 2048.57L3847.83 2015.32L3711 1771.34L3694.54 1773.33L3653.41 1695.09L3591.05 1635.59L3563.34 1589.6L3383.63 1620.84L3249.83 1633.59L3057.14 1555.85L2964.47 1634.34L2919.87 1617.6Z" fill="#E4D99F" fill-opacity="0.75" stroke="black"/>
<path d="M788.966 1227.87C708.251 1265.27 629.759 1245.29 600.602 1230.62L596.271 1228.12L823.175 1102.63L833.568 1108.63C885.184 1155.23 839.486 1199.37 810.184 1215.62L788.966 1227.87Z" fill="white" stroke="black"/>
<path d="M1371.38 355.177L1238.01 438.172C1443.44 548.365 1666.85 490.585 1752.87 447.921L1622.97 355.927L1371.38 355.177Z" fill="white" stroke="black"/>
<path d="M1715.2 1194.62L1653.28 1274.37L1597.06 1306.82L1617.77 1322.86L1681.86 1285.87L1835.15 1245.87L1916.12 1154.63L2001.43 1105.38L1970.25 1091.38L1888.41 1138.63L1742.48 1178.87L1715.2 1194.62Z" fill="white"/>
<path d="M1596.55 1307.12L1597.06 1306.82M1597.06 1306.82L1653.28 1274.37L1715.2 1194.62L1742.48 1178.87L1888.41 1138.63L1970.25 1091.38L2001.43 1105.38L1916.12 1154.63L1835.15 1245.87L1681.86 1285.87L1617.77 1322.86L1597.06 1306.82Z" stroke="black"/>
<path d="M1561.48 877.893L1474.01 928.39L1630.33 1018.63L1797.47 1115.13L1899.67 1052.13C1867.1 914.941 1660.64 878.81 1561.48 877.893Z" fill="white" stroke="black"/>
<path d="M2266.01 1051.13L2126.57 1136.63L2486.85 1284.62L2564.36 1329.36L2427.52 1408.36L2619.35 1519.1L2600.73 1538.85L2808.15 1640.59L2852.32 1666.09L2924.63 1608.85L2868.34 1587.35L3036.35 1447.86L3346.4 1252.87L3299.63 1184.87L3314.78 1097.13V1074.13L3299.2 1047.63L3273.21 1027.63L3123.39 954.138L3095.68 947.639L2764.41 773.4L2485.11 934.64L2761.82 1094.38L2581.68 1198.37L2657.02 1247.37L2555.26 1233.12L2266.01 1051.13Z" fill="white" stroke="black"/>
<g opacity="0.5">
<path d="M2225.3 969.637L1822.59 737.153L1606.08 862.144C1842.68 888.743 1924.64 1000.22 1936.04 1052.63L2033.04 1093.63L2225.3 969.637Z" fill="#94E9AF" stroke="black" stroke-opacity="0.75"/>
<path d="M1655.44 1349.61L2056.42 1127.13L2001.86 1105.13L1918.29 1153.38L1834.71 1246.12L1680.56 1286.62L1618.64 1322.36L1655.44 1349.61Z" fill="#94E9AF" stroke="black" stroke-opacity="0.75"/>
<path d="M788.966 1227.87C708.251 1264.87 629.758 1245.12 600.602 1230.62L559.897 1254.12L719.25 1341.11L854.786 1265.87L788.966 1227.87Z" fill="#94E9AF" stroke="black" stroke-opacity="0.75"/>
<path d="M832.701 1108.13C885.703 1151.53 840.64 1198.04 811.483 1215.87L872.539 1256.12L983.393 1198.12L986.424 1181.37L940.524 1154.88L927.1 1162.62L832.701 1108.13Z" fill="#94E9AF" stroke="black" stroke-opacity="0.75"/>
<path d="M861.714 1283.87L805.421 1316.36L836.166 1337.11L822.309 1345.11L934.895 1413.11L951.35 1403.61L1110.7 1500.1L1254.9 1416.86L1301.66 1379.86C1311.36 1373.46 1306.86 1366.86 1303.4 1364.36L1209.86 1310.37L1106.37 1370.11C1118.5 1386.71 1091.22 1402.03 1076.06 1407.61C1010.93 1416.01 1002.73 1384.44 1006.78 1367.61L979.496 1351.86L961.309 1350.36L927.1 1330.61L922.77 1319.11L861.714 1283.87Z" fill="#94E9AF" stroke="black" stroke-opacity="0.75"/>
<path d="M957.845 1301.37L944.421 1293.62L1064.8 1226.62L1170.03 1287.37V1301.87L1082.56 1352.36C1075.63 1350.36 1056.86 1352.36 1048.35 1353.61C1034.14 1351.81 1016.16 1337.7 1008.94 1330.86L1007.21 1321.86L973.001 1302.12L957.845 1301.37Z" fill="#94E9AF" stroke="black" stroke-opacity="0.75"/>
<path d="M1142.75 1517.1L1369.65 1377.11L1384.8 1474.85L1571.87 1586.35L1578.8 1582.35L1729.92 1669.59L1580.1 1756.09C1551.69 1770.49 1516.59 1762.59 1502.59 1756.84L1464.48 1734.84L1482.67 1724.34L1371.38 1657.09L1353.19 1667.59L1315.95 1646.09L1365.75 1614.85L1344.53 1602.6L1292.57 1632.59L1225.45 1591.35L1246.24 1579.35L1142.75 1517.1Z" fill="#94E9AF" stroke="black" stroke-opacity="0.75"/>
<path d="M1741.18 1178.62L1716.5 1164.37L1809.17 1110.88L1894.91 1057.88L1970.25 1090.88L1887.54 1138.63L1741.18 1178.62Z" fill="#94E9AF" stroke="black" stroke-opacity="0.75"/>
<path d="M1595.25 1306.87L1551.08 1276.37L1539.83 1269.87L1693.55 1181.12L1715.63 1193.87L1652.41 1273.87L1595.25 1306.87Z" fill="#94E9AF" stroke="black" stroke-opacity="0.75"/>
<path d="M1493.93 892.392L1724.29 768.901L1529.43 771.4C1506.92 772.4 1501.86 782.316 1502.15 787.149L1493.93 892.392Z" fill="#94E9AF"/>
<path d="M1971.98 650.408L1850.74 720.404L2318.4 989.886L2348.28 987.636L2452.2 927.64L1971.98 650.408Z" fill="#94E9AF"/>
<path d="M1493.93 892.392L1724.29 768.901L1529.43 771.4C1506.92 772.4 1501.86 782.316 1502.15 787.149L1493.93 892.392Z" stroke="black" stroke-opacity="0.75"/>
<path d="M1971.98 650.408L1850.74 720.404L2318.4 989.886L2348.28 987.636L2452.2 927.64L1971.98 650.408Z" stroke="black" stroke-opacity="0.75"/>
<path d="M1341.07 763.651L1090.78 759.651L1383.07 890.393L1441.53 893.642L1445.43 788.899C1452.01 772.7 1421.03 768.484 1404.72 768.401L1341.07 763.651Z" fill="#94E9AF" stroke="black" stroke-opacity="0.75"/>
<path d="M1927.38 458.171L1814.36 392.925L1673.2 391.925L1752.44 448.171C1653.71 492.769 1547.33 502.751 1506.48 502.168L1522.51 538.416C1680.82 547.815 1858.39 488.835 1927.38 458.171Z" fill="#94E9AF" stroke="black" stroke-opacity="0.75"/>
<path d="M1133.65 475.92L1199.9 384.676L1322.58 385.148L1236.74 438.066C1329.84 486.531 1434.75 500.773 1475.57 501.836L1455.21 537.35C1296.14 540.351 1157.17 483.999 1133.65 475.92Z" fill="#94E9AF" stroke="black" stroke-opacity="0.75"/>
<path d="M974.3 685.906L1118.93 495.918L1128.89 501.668C1200.77 524.666 1385.41 569.264 1548.92 563.664C1712.43 558.064 1856.65 511.001 1908.33 488.169L1939.07 505.918L1881.48 539.165V602.161L1947.73 640.409L1753.31 752.652L1562.34 751.902L1565.81 633.409L1401.26 630.41L1393.47 744.402L1042.28 737.653C1034.06 734.903 1012.67 726.853 992.92 716.654C973.174 706.455 972.279 691.906 974.3 685.906Z" fill="#94E9AF" stroke="black" stroke-opacity="0.75"/>
<path d="M1202.5 1269.12L1051.81 1182.12L1176.09 1110.38L1335.01 1202.12L1217.66 1269.87L1202.5 1269.12Z" fill="#94E9AF" stroke="black" stroke-opacity="0.75"/>
<path d="M1010.24 845.646L1118.06 791.899L1385.67 908.391C1414.77 922.79 1409.34 942.723 1402.99 950.889L1290.41 1015.88L1010.24 845.646Z" fill="#94E9AF" stroke="black" stroke-opacity="0.75"/>
<path d="M1360.12 998.635L1444.56 949.889C1453.57 944.689 1468.52 945.722 1474.87 946.889L1545.46 980.137V993.636C1533.68 1005.64 1475.88 1035.97 1448.46 1049.63C1414.51 1040.43 1375.42 1011.8 1360.12 998.635Z" fill="#1E6233" stroke="black" stroke-opacity="0.75"/>
<path d="M1196.01 1099.38L1334.57 1015.88C1340.34 1012.41 1398.46 1044.27 1426.81 1060.63C1410.79 1071.21 1371.9 1093.83 1344.53 1099.63C1317.17 1105.43 1274.24 1125.04 1256.2 1134.13L1196.01 1099.38Z" fill="#1E6233" stroke="black" stroke-opacity="0.75"/>
<path d="M1561.91 1000.64L1574.47 997.886L1642.02 1041.88C1592.48 1078.88 1545.46 1101.13 1528.14 1107.63C1511.85 1117.43 1481.51 1117.71 1468.38 1116.63C1448.98 1092.63 1457.99 1066.63 1464.91 1056.63C1513.76 1035.23 1549.93 1010.38 1561.91 1000.64Z" fill="#1E6233" stroke="black" stroke-opacity="0.75"/>
<path d="M1372.68 1108.88C1379.95 1107.88 1412.66 1087.13 1428.11 1076.88C1433.74 1134.63 1480.07 1147.38 1473.57 1148.13C1468.38 1148.73 1455.53 1161.21 1449.76 1167.37C1425.51 1184.97 1387.69 1195.71 1371.81 1198.87L1276.98 1144.13C1282.61 1133.38 1363.59 1110.13 1372.68 1108.88Z" fill="#1E6233" stroke="black" stroke-opacity="0.75"/>
<path d="M1516.01 1283.12L1539.39 1269.62L1692.68 1181.12C1664.25 1166.71 1603.74 1137.78 1589.19 1137.38C1574.64 1136.98 1550.22 1140.54 1539.83 1142.38C1529.43 1140.78 1503.74 1155.71 1492.19 1163.37C1479.72 1183.37 1432.73 1211.04 1410.79 1222.37L1516.01 1283.12Z" fill="#1E6233" stroke="black" stroke-opacity="0.75"/>
<path d="M1584.43 1113.63C1613.53 1109.23 1684.6 1145.29 1716.5 1163.87L1794.88 1118.63L1671.9 1055.13C1667.4 1062.53 1611.71 1097.21 1584.43 1113.63Z" fill="#1E6233" stroke="black" stroke-opacity="0.75"/>
<path d="M2365.6 1004.14L2313.64 1034.13C2301.51 1038.33 2307.72 1048.72 2312.34 1053.38L2382.49 1093.88C2405.44 1081.13 2453.07 1054.33 2460 1049.13C2466.93 1043.93 2462.31 1040.3 2459.13 1039.13L2398.08 1003.89C2386.3 995.486 2371.52 1000.55 2365.6 1004.14Z" fill="#94E9AF" stroke="black" stroke-opacity="0.75"/>
<path d="M2484.68 934.89L2417.13 973.887C2408.82 978.687 2413.09 982.553 2416.26 983.886L2485.55 1023.88C2493.51 1028.48 2500.99 1025.8 2503.73 1023.88L2571.29 984.886L2484.68 934.89Z" fill="#94E9AF" stroke="black" stroke-opacity="0.75"/>
<path d="M2484.68 934.89L2417.13 973.887C2408.82 978.687 2413.09 982.553 2416.26 983.886L2485.55 1023.88C2493.51 1028.48 2500.99 1025.8 2503.73 1023.88L2571.29 984.886L2484.68 934.89Z" fill="#94E9AF" stroke="black" stroke-opacity="0.75"/>
<path d="M2802.09 976.637L2760.08 952.389L2786.93 936.89L2828.93 961.138L2802.09 976.637Z" fill="#94E9AF" stroke="black"/>
<path d="M2843.22 951.389L2793.86 922.89L2838.03 897.392L2887.39 925.89L2843.22 951.389Z" fill="#94E9AF" stroke="black"/>
<path d="M2905.15 917.141L2863.14 892.892L2889.99 877.393L2931.99 901.642L2905.15 917.141Z" fill="#94E9AF" stroke="black"/>
<path d="M2871.8 954.388L2818.11 985.386L2883.93 1023.38L2937.62 992.386L2871.8 954.388Z" fill="#94E9AF" stroke="black"/>
<path d="M2945.85 911.141L2895.62 940.139L2959.71 977.137L2998.68 954.638L2985.69 934.14L2945.85 911.141Z" fill="#94E9AF" stroke="black"/>
<path d="M3277.11 1227.37L3320.41 1222.87L3302.23 1188.37L3304.39 1155.13L3312.62 1115.88L3315.65 1085.63L3213.46 1096.63L3215.19 1132.13L3190.51 1157.88L3205.23 1193.87L3277.11 1227.37Z" fill="#94E9AF" stroke="black"/>
<path d="M3182.28 1050.13L3202.2 1073.13L3305.26 1058.13L3290.1 1039.88L3179.25 980.887L3152.4 981.387L3129.45 994.636L3142.87 1013.38L3130.75 1020.38L3182.28 1050.13Z" fill="#94E9AF" stroke="black"/>
</g>
<path d="M1557.79 641.272L1551.24 749.461L1403.71 746.487L1410.25 638.298L1557.79 641.272Z" fill="#A4A4A6" stroke="black" stroke-opacity="0.5"/>
<path d="M1503.02 793.873L1502.41 804.047L1440.94 802.808L1441.56 792.634L1503.02 793.873Z" fill="#A4A4A6" stroke="black" stroke-opacity="0.5"/>
<path d="M1499.56 849.87L1498.94 860.043L1437.48 858.804L1438.09 848.631L1499.56 849.87Z" fill="#A4A4A6" stroke="black" stroke-opacity="0.5"/>
<path d="M1534.96 279.53L1530.29 356.768L1459.3 355.337L1463.97 278.099L1534.96 279.53Z" fill="#A4A4A6" stroke="black" stroke-opacity="0.5"/>
<path d="M1255.76 973.887L1237.58 984.386L1003.75 849.395L1021.93 838.896L1255.76 973.887Z" fill="#A4A4A6" stroke="black" stroke-opacity="0.5"/>
<path d="M1073.89 798.899L1010.67 835.396L915.409 780.4L978.63 743.902L1073.89 798.899Z" fill="#A4A4A6" stroke="black" stroke-opacity="0.5"/>
<path d="M1268.75 1021.38L1153.57 1087.88L1111.13 1063.38L1226.32 996.886L1268.75 1021.38Z" fill="#A4A4A6" stroke="black" stroke-opacity="0.5"/>
<path d="M1247.1 1228.87L1186.48 1263.87L1105.07 1216.87L1165.7 1181.87L1247.1 1228.87Z" fill="#A4A4A6" stroke="black" stroke-opacity="0.5"/>
<path d="M1714.77 1193.87L1583.13 1269.87L1544.16 1247.37L1675.8 1171.37L1714.77 1193.87Z" fill="#A4A4A6" stroke="black" stroke-opacity="0.5"/>
<path d="M1831.68 1126.38L1741.61 1178.37L1702.64 1155.88L1792.71 1103.88L1831.68 1126.38Z" fill="#A4A4A6" stroke="black" stroke-opacity="0.5"/>
<path d="M1768.36 921.414L1746.32 943.458L1694.81 926.289L1716.85 904.245L1768.36 921.414Z" fill="#A4A4A6" stroke="black" stroke-opacity="0.5"/>
<path d="M1641.6 891.192L1630.19 915.779L1572.74 906.892L1584.15 882.305L1641.6 891.192Z" fill="#A4A4A6" stroke="black" stroke-opacity="0.5"/>
<path d="M1855.07 980.114L1816.88 992.841L1787.14 963.103L1825.33 950.376L1855.07 980.114Z" fill="#A4A4A6" stroke="black" stroke-opacity="0.5"/>
<path d="M1901.19 1052.39L1858.6 1058.98L1843.21 1025.81L1885.8 1019.23L1901.19 1052.39Z" fill="#A4A4A6" stroke="black" stroke-opacity="0.5"/>
<path d="M2273.37 1241.37L2162.51 1305.37L2114.88 1277.87L2225.73 1213.87L2273.37 1241.37Z" fill="#A4A4A6" stroke="black" stroke-opacity="0.5"/>
<path d="M2577.35 1336.86L2433.58 1419.86L2413.67 1408.36L2557.43 1325.36L2577.35 1336.86Z" fill="#A4A4A6" stroke="black" stroke-opacity="0.5"/>
<path d="M2924.46 1105.87L2686.79 1258.25L2665.86 1247.37L2903.52 1094.99L2924.46 1105.87Z" fill="#A4A4A6" stroke="black" stroke-opacity="0.5"/>
<path d="M3125.36 952.47L2887.69 1104.85L2866.76 1093.97L3104.42 941.588L3125.36 952.47Z" fill="#A4A4A6" stroke="black" stroke-opacity="0.5"/>
<path d="M3027.5 1133.96L2789.83 1286.34L2768.9 1275.46L3006.56 1123.08L3027.5 1133.96Z" fill="#A4A4A6" stroke="black" stroke-opacity="0.5"/>
<path d="M2632.77 1508.85L2610.26 1521.85L2433.58 1419.86L2456.1 1406.86L2632.77 1508.85Z" fill="#A4A4A6" stroke="black" stroke-opacity="0.5"/>
<path d="M2926.81 1500.24L2851.76 1548.36L2669.02 1453.37L2744.07 1405.25L2926.81 1500.24Z" fill="#A4A4A6" stroke="black" stroke-opacity="0.5"/>
<path d="M3002.58 1738.31L2906.38 1817.62L2752.9 1755.58L2849.09 1676.27L3002.58 1738.31Z" fill="#A4A4A6" stroke="black" stroke-opacity="0.5"/>
<path d="M3060.56 1553.87L2964.37 1633.18L2917.51 1614.23L3013.71 1534.92L3060.56 1553.87Z" fill="#A4A4A6" stroke="black" stroke-opacity="0.5"/>
<path d="M2755.78 1579.94L2730.17 1598.19L2603.74 1539.09L2629.35 1520.83L2755.78 1579.94Z" fill="#A4A4A6" stroke="black" stroke-opacity="0.5"/>
<path d="M3189.94 1708.95L3234.66 1796.1L3050.02 1827.68L3005.3 1740.52L3189.94 1708.95Z" fill="#A4A4A6" stroke="black" stroke-opacity="0.5"/>
<path d="M3562.14 1501.2L3604.47 1578.71L3422.56 1611.82L3380.23 1534.31L3562.14 1501.2Z" fill="#A4A4A6" stroke="black" stroke-opacity="0.5"/>
<path d="M3606.3 1581.6L3635.89 1635.78L3602.52 1641.85L3572.93 1587.68L3606.3 1581.6Z" fill="#A4A4A6" stroke="black" stroke-opacity="0.5"/>
<path d="M3373.73 1602.27L3379.38 1620.76L3241.51 1634.79L3235.86 1616.31L3373.73 1602.27Z" fill="#A4A4A6" stroke="black" stroke-opacity="0.5"/>
<path d="M3676.91 1689.22L3720.39 1768.83L3697.13 1773.07L3653.65 1693.45L3676.91 1689.22Z" fill="#A4A4A6" stroke="black" stroke-opacity="0.5"/>
<path d="M3313.16 1687.22L3433.8 1666.59L3449.45 1695.34L3556.41 1677.59L3585.86 1733.59L3478.23 1753.17L3357.58 1773.81L3313.16 1687.22Z" fill="#A4A4A6" stroke="black" stroke-opacity="0.5"/>
<path d="M3022.03 1439.63L2946.98 1487.75L2764.23 1392.76L2839.29 1344.64L3022.03 1439.63Z" fill="#A4A4A6" stroke="black" stroke-opacity="0.5"/>
<path d="M3281.43 1251.05L3065.94 1389.21L2896.74 1301.26L3112.23 1163.1L3281.43 1251.05Z" fill="#A4A4A6" stroke="black" stroke-opacity="0.5"/>
<path d="M2295.02 883.893L2210.15 932.89L2075.91 855.395L2160.78 806.398L2295.02 883.893Z" fill="#A4A4A6" stroke="black" stroke-opacity="0.5"/>
<path d="M2267.88 1051.47L2127.65 1136.77L2097.44 1120.23L2237.68 1034.92L2267.88 1051.47Z" fill="#A4A4A6" stroke="black" stroke-opacity="0.5"/>
<path d="M2562.11 1233.19L2555.47 1236.77L2262.73 1055.54L2269.37 1051.96L2562.11 1233.19Z" fill="#A4A4A6" stroke="black" stroke-opacity="0.5"/>
<path d="M3346.92 1247.57L3353.66 1251.07L2989.62 1484.48L2982.87 1480.98L3346.92 1247.57Z" fill="#A4A4A6" stroke="black" stroke-opacity="0.5"/>
<path d="M2986.21 1483.07L2993.64 1486.07L2868.93 1588.9L2861.49 1585.9L2986.21 1483.07Z" fill="#A4A4A6" stroke="black" stroke-opacity="0.5"/>
<path d="M2923.74 1604.84L2918.54 1609.13L2862.52 1586.49L2867.73 1582.2L2923.74 1604.84Z" fill="#A4A4A6" stroke="black" stroke-opacity="0.5"/>
<path d="M2812.36 1634.83L2806.53 1638.84L2727.73 1600.67L2733.57 1596.66L2812.36 1634.83Z" fill="#A4A4A6" stroke="black" stroke-opacity="0.5"/>
<path d="M2855.35 1664.34L2849.29 1667.84L2802.52 1640.84L2808.58 1637.34L2855.35 1664.34Z" fill="#A4A4A6" stroke="black" stroke-opacity="0.5"/>
<path d="M2480.77 1142.71L2474.35 1146.41L2382.49 1093.38L2388.9 1089.67L2480.77 1142.71Z" fill="#A4A4A6" stroke="black" stroke-opacity="0.5"/>
<path d="M2663.95 1246.87L2657.89 1250.37L2583.41 1207.37L2589.47 1203.87L2663.95 1246.87Z" fill="#A4A4A6" stroke="black" stroke-opacity="0.5"/>
<path d="M2663.5 1037.21L2657.09 1040.92L2565.22 987.886L2571.64 984.182L2663.5 1037.21Z" fill="#A4A4A6" stroke="black" stroke-opacity="0.5"/>
<path d="M2715.05 1131.38L2644.9 1171.87L2583.84 1207.12L2476.45 1145.13L2537.51 1109.88L2471.69 1071.88L2541.84 1031.38L2607.66 1069.38L2665.25 1036.13L2772.64 1098.13L2715.05 1131.38Z" fill="#A4A4A6" stroke="black" stroke-opacity="0.5"/>
<path d="M1344.1 1284.87L1385.53 1309.44L1362.69 1322.63L1320.68 1298.39L1304.7 1307.62L1291.27 1299.87L1307.26 1290.64L1286.04 1278.39L1308.89 1265.2L1330.11 1277.45L1347.13 1267.62L1360.56 1275.37L1344.1 1284.87Z" fill="#A4A4A6" stroke="black" stroke-opacity="0.5"/>
<path d="M1755.04 1229.62C1740.49 1216.42 1751 1205.96 1758.07 1202.37C1778.16 1190.77 1800.22 1197.04 1808.73 1201.62C1815.81 1206.21 1825.02 1218.22 1805.27 1229.62C1785.52 1241.02 1763.55 1234.37 1755.04 1229.62Z" fill="#A4A4A6" stroke="black" stroke-opacity="0.5"/>
<path d="M1641.62 1016.65C1627.07 1003.45 1637.58 992.988 1644.65 989.405C1664.74 977.805 1686.8 984.072 1695.31 988.655C1702.39 993.238 1711.6 1005.25 1691.85 1016.65C1672.1 1028.05 1650.13 1021.4 1641.62 1016.65Z" fill="#A4A4A6" stroke="black" stroke-opacity="0.5"/>
<path d="M2076.14 1140.67L1654.14 1371.86L1631.45 1358.06L2053.45 1126.87L2076.14 1140.67Z" fill="#A4A4A6" stroke="black" stroke-opacity="0.5"/>
<path d="M1657.35 1350.85L1633.56 1361.98L1524.88 1284.5L1548.67 1273.37L1657.35 1350.85Z" fill="#A4A4A6" stroke="black" stroke-opacity="0.5"/>
<path d="M1056.57 1298.87L915.409 1380.36L877.303 1358.36L1018.47 1276.87L1056.57 1298.87Z" fill="#A4A4A6" stroke="black" stroke-opacity="0.5"/>
<path d="M1437.63 1588.85L1377.01 1623.84L1329.38 1596.35L1390 1561.35L1437.63 1588.85Z" fill="#A4A4A6" stroke="black" stroke-opacity="0.5"/>
<path d="M1708.71 1582.35L1642.02 1620.84L1594.39 1593.35L1661.07 1554.85L1708.71 1582.35Z" fill="#A4A4A6" stroke="black" stroke-opacity="0.5"/>
<path d="M1628.16 1648.84L1519.04 1711.84L1497.39 1699.34L1606.51 1636.34L1628.16 1648.84Z" fill="#A4A4A6" stroke="black" stroke-opacity="0.5"/>
<path d="M837.465 1335.36L796.76 1358.86L762.119 1338.86L802.823 1315.36L837.465 1335.36Z" fill="#A4A4A6" stroke="black" stroke-opacity="0.5"/>
<path d="M869.508 1246.87L840.063 1263.87L805.421 1243.87L834.866 1226.87L869.508 1246.87Z" fill="#A4A4A6" stroke="black" stroke-opacity="0.5"/>
<path d="M1253.17 1575.35L1226.32 1590.85L926.667 1417.86L953.515 1402.36L1253.17 1575.35Z" fill="#A4A4A6" stroke="black" stroke-opacity="0.5"/>
<path d="M1484.4 1722.84L1457.55 1738.34L1344.1 1672.84L1370.95 1657.34L1484.4 1722.84Z" fill="#A4A4A6" stroke="black" stroke-opacity="0.5"/>
<path d="M1538.83 560.905L1537.54 582.218L1504.32 609.911L1464.05 609.161L1432.47 580.099L1433.76 558.786L1538.83 560.905Z" fill="#A4A4A6" stroke="black" stroke-opacity="0.5"/>
<path d="M1538.83 560.905L1537.54 582.218L1504.32 609.911L1464.05 609.161L1432.47 580.099L1433.76 558.786L1538.83 560.905Z" fill="#A4A4A6" stroke="black" stroke-opacity="0.5"/>
<path d="M2254.75 648.158L2111.42 730.903L2262.11 817.897L2405.44 735.153L2254.75 648.158Z" fill="#A4A4A6" stroke="black" stroke-opacity="0.5"/>
<path d="M2405.44 735.153L2262.54 817.647L2414.1 905.142L2557 822.647L2405.44 735.153Z" fill="#A4A4A6" stroke="black" stroke-opacity="0.5"/>
<path d="M2647.5 770.4L2508.06 850.895L2547.04 873.394L2686.47 792.899L2647.5 770.4Z" fill="#A4A4A6" stroke="black" stroke-opacity="0.5"/>
<path d="M2604.2 892.392L2508.06 947.889L2532.31 961.888L2628.44 906.392L2604.2 892.392Z" fill="#A4A4A6" stroke="black" stroke-opacity="0.5"/>
<path d="M2596.4 844.896L2584.28 851.895L2608.53 865.894L2620.65 858.895L2596.4 844.896Z" fill="#A4A4A6" stroke="black" stroke-opacity="0.5"/>
<path d="M2661.35 835.396L2583.41 880.393L2618.92 900.892L2696.86 855.895L2661.35 835.396Z" fill="#A4A4A6" stroke="black" stroke-opacity="0.5"/>
<path d="M2746.23 968.387L2683.87 1004.39L2809.45 1076.88L2871.8 1040.88L2746.23 968.387Z" fill="#A4A4A6" stroke="black" stroke-opacity="0.5"/>
<path d="M2787.8 818.397L2657.02 893.892L2692.53 914.391L2759.22 952.888L2788.66 935.89L2721.98 897.392L2796.02 854.645L2862.71 893.142L2889.99 877.393L2823.3 838.896L2787.8 818.397Z" fill="#A4A4A6" stroke="black" stroke-opacity="0.5"/>
<path d="M750.428 1142.63L662.091 1190.12L607.963 1158.88L693.269 1109.63L750.428 1142.63Z" fill="#3B3A46" stroke="black"/>
<path d="M1508.65 1457.86L1440.67 1497.1L1537.23 1552.85L1605.21 1513.6L1508.65 1457.86Z" fill="#3B3A46" stroke="black"/>
<path d="M2341.35 598.662L2255.61 648.158L2405.87 734.903L2491.61 685.406L2341.35 598.662Z" fill="#3B3A46" stroke="black"/>
<path d="M2493.34 684.906L2406.74 734.903L2557.43 821.897L2647.06 770.15L2493.34 684.906Z" fill="#3B3A46" stroke="black"/>
<path d="M1303.98 273.098L1296.23 358.477L1458.6 363.389L1466.35 278.011L1303.98 273.098Z" fill="#3B3A46" stroke="black"/>
<path d="M3305.26 1685.59L3195.27 1704.59L3238.14 1795.83L3352.02 1775.08L3305.26 1685.59Z" fill="#3B3A46" stroke="black"/>
<path d="M3206.53 1465.61L3139.84 1519.1L3230.35 1557.85L3300.06 1502.6L3206.53 1465.61Z" fill="#3B3A46" stroke="black"/>
<path d="M2711.15 1304.12L2764.85 1273.12L2799.92 1293.37L2746.23 1324.36L2711.15 1304.12Z" fill="#3B3A46" stroke="black"/>
<path d="M1535.37 279.503L1527.62 364.881L1690 369.794L1697.75 284.416L1535.37 279.503Z" fill="#3B3A46" stroke="black"/>
</g>
<defs>
<clipPath id="clip0_8_1964">
<rect width="1877.9" height="3429.21" fill="white" transform="matrix(0.866044 -0.499967 0.866044 0.499967 0 938.889)"/>
</clipPath>
</defs>
</svg>
